<?xml version="1.0" standalone="no"?><!DOCTYPE svg PUBLIC "-//W3C//DTD SVG 1.1//EN" "http://www.w3.org/Graphics/SVG/1.1/DTD/svg11.dtd"><svg t="1583731226744" class="icon" viewBox="0 0 1204 1024" version="1.1" xmlns="http://www.w3.org/2000/svg" p-id="77277" xmlns:xlink="http://www.w3.org/1999/xlink" width="235.15625" height="200"><defs><style type="text/css"></style></defs><path d="M933.121837 1023.488561H271.00237a30.564062 30.564062 0 1 1 0-60.211202h662.221347a30.564062 30.564062 0 0 1 0 60.211202z m150.477066-120.524285H120.423424a121.135566 121.135566 0 0 1-85.069973-35.250551A119.403603 119.403603 0 0 1 0.001019 782.541871v-662.221346A120.524285 120.524285 0 0 1 120.423424 0h963.175479a119.709243 119.709243 0 0 1 85.171853 35.250552 121.135566 121.135566 0 0 1 35.250552 85.069973v662.221346a120.218644 120.218644 0 0 1-120.422405 120.422405zM631.658304 288.422867v343.845699h125.822056a163.823373 163.823373 0 0 0 126.637097-46.253614 177.679081 177.679081 0 0 0 41.465245-125.720176 176.150878 176.150878 0 0 0-41.465245-125.720176 163.823373 163.823373 0 0 0-126.637097-46.253614zM362.592677 545.97603h143.956732l31.379104 86.190656h60.109322L466.510488 288.422867h-63.98077L271.00237 632.268566h60.109323l31.379103-86.088775z m384.292141 38.103198h-58.682999V336.204684h58.682999a127.554019 127.554019 0 0 1 94.035431 29.44338 130.304785 130.304785 0 0 1 28.832099 94.341071 132.444269 132.444269 0 0 1-28.832099 93.933551 128.980342 128.980342 0 0 1-94.035431 30.156542z m-257.145643-84.254932H379.402911l54.40403-150.782706h1.935724L489.637295 499.213015z" p-id="77278" fill="#ffffff"></path></svg>