<?xml version="1.0" standalone="no"?><!DOCTYPE svg PUBLIC "-//W3C//DTD SVG 1.1//EN" "http://www.w3.org/Graphics/SVG/1.1/DTD/svg11.dtd"><svg t="1583725036056" class="icon" viewBox="0 0 1024 1024" version="1.1" xmlns="http://www.w3.org/2000/svg" p-id="16091" xmlns:xlink="http://www.w3.org/1999/xlink" width="200" height="200"><defs><style type="text/css"></style></defs><path d="M436.495 368.723c94.534 0 171.164-76.881 171.164-171.415 0-94.759-76.63-171.415-171.164-171.415-94.759 0-171.665 76.655-171.665 171.415 0 94.534 76.905 171.415 171.665 171.415zM828.045 308.993c61.71 0 110.682-49.975 110.682-111.184S889.756 87.604 828.045 87.604c-60.732 0-110.682 48.997-110.682 110.206s49.95 111.183 110.682 111.183zM903.973 335.673h-0.502c-0.978 0.978-59.754 35.507-138.115 0h-0.226c-48.245 15.421-76.655 52.157-92.578 91.575 42.377 39.443 86.685 105.542 96.239 213.04 148.897 49.724 248.797-72.468 248.797-72.468 18.131-190.772-113.615-232.147-113.615-232.147zM630.201 441.466c-41.399-39.193-80.818-51.429-80.818-51.429l-0.476 0.251c-1.981 1.454-91.851 54.84-213.29 0v-0.251c-93.807 30.366-137.864 111.66-159.429 189.544 9.554-1.479 19.609-2.457 30.115-2.457 115.848 0 209.629 93.782 209.629 209.354 0 31.344-7.598 61.234-19.835 88.165 199.327 33.551 330.567-125.376 330.567-125.376 2.959-35.005 1.981-66.6 0.251-95.01-9.778-107.249-54.361-173.874-96.714-212.791z" p-id="16092" fill="#ffffff"></path><path d="M193.089 607.74C90.983 607.74 8.46 690.263 8.46 792.369c0 101.856 82.523 184.379 184.629 184.379 101.63 0 184.404-82.523 184.404-184.379 0-102.106-82.774-184.629-184.404-184.629z m25.477 208.626v92.076l-51.676-0.978v-91.099H78.972v-49.474h87.918v-87.162l51.676 1.705v85.457h87.914v49.474l-87.914 0.001z" p-id="16093" fill="#ffffff"></path></svg>