<?xml version="1.0" standalone="no"?><!DOCTYPE svg PUBLIC "-//W3C//DTD SVG 1.1//EN" "http://www.w3.org/Graphics/SVG/1.1/DTD/svg11.dtd"><svg t="1583731208087" class="icon" viewBox="0 0 1024 1024" version="1.1" xmlns="http://www.w3.org/2000/svg" p-id="76401" xmlns:xlink="http://www.w3.org/1999/xlink" width="200" height="200"><defs><style type="text/css"></style></defs><path d="M146.285714 0h731.428572a146.285714 146.285714 0 0 1 146.285714 146.285714v731.428572a146.285714 146.285714 0 0 1-146.285714 146.285714H146.285714a146.285714 146.285714 0 0 1-146.285714-146.285714V146.285714a146.285714 146.285714 0 0 1 146.285714-146.285714z m136.484572 229.595429L123.026286 647.314286h73.142857l38.034286-104.740572h174.957714l38.034286 104.740572h73.142857L360.594286 229.595429H282.770286zM254.683429 486.4l66.121142-183.149714h2.340572l65.536 183.149714H254.683429z m306.614857-256.877714V647.314286h152.722285c67.876571 0 118.784-18.724571 153.892572-56.173715 33.353143-35.693714 50.322286-86.601143 50.322286-152.722285 0-66.706286-16.969143-117.613714-50.322286-152.722286-35.108571-37.449143-86.016-56.173714-153.892572-56.173714H561.298286z m68.461714 58.514285h71.387429c52.077714 0 90.112 11.702857 114.102857 35.693715 23.405714 23.405714 35.108571 62.025143 35.108571 114.688 0 51.492571-11.702857 89.526857-35.108571 114.102857-23.990857 23.990857-62.025143 36.278857-114.102857 36.278857H629.76V288.109714zM146.285714 816.713143h731.428572a36.571429 36.571429 0 1 0 0-73.142857H146.285714a36.571429 36.571429 0 1 0 0 73.142857z" p-id="76402" fill="#ffffff"></path></svg>