<?xml version="1.0" standalone="no"?><!DOCTYPE svg PUBLIC "-//W3C//DTD SVG 1.1//EN" "http://www.w3.org/Graphics/SVG/1.1/DTD/svg11.dtd"><svg t="1583724641143" class="icon" viewBox="0 0 1195 1024" version="1.1" xmlns="http://www.w3.org/2000/svg" p-id="3431" xmlns:xlink="http://www.w3.org/1999/xlink" width="233.3984375" height="200"><defs><style type="text/css"></style></defs><path d="M381.155556 500.622222 51.2 295.822222C22.755556 284.444444 0 295.822222 0 324.266667l0 398.222222c0 34.133333 22.755556 68.266667 51.2 85.333333l335.644444 204.8c28.444444 17.066667 51.2 5.688889 51.2-28.444444l0-398.222222C432.355556 557.511111 409.6 517.688889 381.155556 500.622222z" p-id="3432" fill="#ffffff"></path><path d="M847.644444 273.066667c28.444444-17.066667 28.444444-39.822222 0-56.888889l-341.333333-204.8C483.555556-5.688889 438.044444-5.688889 409.6 11.377778L102.4 170.666667c-28.444444 17.066667-28.444444 39.822222 0 56.888889l324.266667 204.8C455.111111 449.422222 494.933333 449.422222 523.377778 438.044444L847.644444 273.066667z" p-id="3433" fill="#ffffff"></path><path d="M961.422222 534.755556c-5.688889 0-11.377778 0-17.066667 0l0-170.666667c0-34.133333-22.755556-45.511111-51.2-28.444444l-324.266667 164.977778c-28.444444 17.066667-51.2 51.2-51.2 85.333333l0 398.222222c0 34.133333 22.755556 45.511111 51.2 28.444444l204.8-108.088889 0 0c39.822222 56.888889 108.088889 91.022222 182.044444 91.022222 125.155556 0 233.244444-102.4 233.244444-233.244444S1086.577778 534.755556 961.422222 534.755556zM961.422222 938.666667c-96.711111 0-176.355556-79.644444-176.355556-176.355556s79.644444-176.355556 176.355556-176.355556c96.711111 0 176.355556 79.644444 176.355556 176.355556S1058.133333 938.666667 961.422222 938.666667z" p-id="3434" fill="#ffffff"></path><path d="M1035.377778 699.733333l-96.711111 96.711111L887.466667 739.555556c-11.377778-11.377778-28.444444-11.377778-39.822222 0-11.377778 11.377778-11.377778 28.444444 0 39.822222l73.955556 73.955556c11.377778 11.377778 28.444444 11.377778 39.822222 0 0 0 0 0 0 0 0 0 0 0 0 0l113.777778-113.777778c11.377778-11.377778 11.377778-28.444444 0-39.822222C1063.822222 688.355556 1041.066667 688.355556 1035.377778 699.733333z" p-id="3435" fill="#ffffff"></path></svg>