<?xml version="1.0" standalone="no"?><!DOCTYPE svg PUBLIC "-//W3C//DTD SVG 1.1//EN" "http://www.w3.org/Graphics/SVG/1.1/DTD/svg11.dtd"><svg t="1583731624688" class="icon" viewBox="0 0 1024 1024" version="1.1" xmlns="http://www.w3.org/2000/svg" p-id="94987" xmlns:xlink="http://www.w3.org/1999/xlink" width="200" height="200"><defs><style type="text/css"></style></defs><path d="M665.202 0.094a58.32 58.32 0 0 1 40.162 17.126l213.922 213.922c12.65 12.65 18.296 29.648 16.942 46.182v249.33c-49.172-104.252-155.142-176.386-277.942-176.386-169.662 0-307.2 137.694-307.2 307.546s137.538 307.546 307.2 307.546c24.434 0 48.2-2.856 70.986-8.252l66.832 66.832H87.772C39.296 1023.942 0 984.646 0 936.17V87.83C0 39.354 39.296 0.058 87.772 0.058h577.396l0.034 0.036z m223.326 760.912l122.622 121.178c17.148 16.978 17.148 44.532-0.082 61.592L948.8 1005.282c-17.148 16.978-45.036 16.978-62.272 0l-123.284-121.928c-9.322-9.156-22.73-11.652-35.3-8.078-76.582 22.142-162.66 3.498-223.096-56.258-54.278-53.684-75.008-127.922-62.432-197.414 3.576-19.646 28.968-26.802 43.366-12.654l120.626 119.35c17.232 16.978 45.118 16.978 62.266 0l62.266-61.504c17.148-16.978 17.148-44.53 0-61.504l-121.706-120.346c-14.316-14.07-7.24-39.038 12.486-42.784 71.096-13.48 147.43 6.908 202.374 61.254 60.94 60.26 79.668 146.318 56.442 222.47-3.828 12.566-1.332 25.964 7.992 35.12z" fill="#ffffff" p-id="94988"></path></svg>