<?xml version="1.0" standalone="no"?><!DOCTYPE svg PUBLIC "-//W3C//DTD SVG 1.1//EN" "http://www.w3.org/Graphics/SVG/1.1/DTD/svg11.dtd"><svg t="1583731663228" class="icon" viewBox="0 0 1024 1024" version="1.1" xmlns="http://www.w3.org/2000/svg" p-id="98956" xmlns:xlink="http://www.w3.org/1999/xlink" width="200" height="200"><defs><style type="text/css"></style></defs><path d="M317.733076 542.939772H162.377758A161.93817 161.93817 0 0 0 0.000731 705.097371v155.062746c0 88.210223 74.093661 162.157598 162.377027 162.157598h155.355318a161.93817 161.93817 0 0 0 162.45017-162.157598V705.097371a162.011313 162.011313 0 0 0-162.45017-162.230742zM857.819547 0.000731H702.46423a161.865027 161.865027 0 0 0-162.377027 162.157599v155.135889a161.93817 161.93817 0 0 0 162.377027 162.157599h155.355317a161.865027 161.865027 0 0 0 162.377027-162.157599v-155.062746A161.791884 161.791884 0 0 0 857.819547 0.000731zM705.975084 542.939772c-134.070761 7.021709-232.886691-91.721077-225.864981-225.645553V165.669185C480.110103 74.02125 406.016441 0.000731 317.733076 0.000731H162.377758C74.094393 0.000731 0.000731 74.02125 0.000731 162.15833v155.135889a161.791884 161.791884 0 0 0 162.377027 162.157599h151.844463C448.366125 472.356965 547.255198 571.172895 540.160346 705.097371v151.551891a161.791884 161.791884 0 0 0 162.377026 162.084456h155.355318a161.791884 161.791884 0 0 0 162.45017-162.084456V705.097371c3.437712-91.647935-70.729092-162.157598-162.523313-162.157599H705.975084z" fill="#ffffff" p-id="98957"></path></svg>