<?xml version="1.0" standalone="no"?><!DOCTYPE svg PUBLIC "-//W3C//DTD SVG 1.1//EN" "http://www.w3.org/Graphics/SVG/1.1/DTD/svg11.dtd"><svg t="1583731124153" class="icon" viewBox="0 0 1024 1024" version="1.1" xmlns="http://www.w3.org/2000/svg" p-id="72358" xmlns:xlink="http://www.w3.org/1999/xlink" width="200" height="200"><defs><style type="text/css"></style></defs><path d="M505.002667 276.138667h-119.466667v325.802666h119.466667c53.418667 0 93.354667-14.677333 121.002666-43.861333s39.594667-68.266667 39.594667-119.466667-13.482667-91.648-39.594667-119.466666-67.584-43.008-121.002666-43.008z m79.530666 251.733333c-18.773333 18.773333-48.810667 28.330667-89.770666 28.330667h-55.978667V321.877333H494.933333c40.96 0 70.826667 9.045333 89.770667 27.818667s27.648 48.298667 27.648 89.429333-9.386667 69.632-27.818667 88.746667z" p-id="72359" fill="#ffffff"></path><path d="M984.746667 0H39.253333A39.253333 39.253333 0 0 0 0 39.253333v945.493334A39.253333 39.253333 0 0 0 39.253333 1024h945.493334a39.253333 39.253333 0 0 0 39.253333-39.253333V39.253333A39.253333 39.253333 0 0 0 984.746667 0zM770.389333 589.824a101.376 101.376 0 0 1-101.034666 101.034667H333.312a27.989333 27.989333 0 0 0-27.989333 27.989333v35.328a27.989333 27.989333 0 0 0 27.989333 27.989333h429.397333a74.922667 74.922667 0 0 1-67.072 41.813334H328.362667a74.752 74.752 0 0 1-74.581334-74.581334V274.602667a74.752 74.752 0 0 1 74.581334-74.581334h367.274666a74.922667 74.922667 0 0 1 74.581334 74.581334z" p-id="72360" fill="#ffffff"></path></svg>