<?xml version="1.0" standalone="no"?><!DOCTYPE svg PUBLIC "-//W3C//DTD SVG 1.1//EN" "http://www.w3.org/Graphics/SVG/1.1/DTD/svg11.dtd"><svg t="1583731042936" class="icon" viewBox="0 0 1024 1024" version="1.1" xmlns="http://www.w3.org/2000/svg" p-id="69607" xmlns:xlink="http://www.w3.org/1999/xlink" width="200" height="200"><defs><style type="text/css"></style></defs><path d="M241.69 140.92v752.94h-136V140.92h136m0-72h-136a72 72 0 0 0-72 72v753a72 72 0 0 0 72 72h136a72 72 0 0 0 72-72v-753a72 72 0 0 0-72-72z" p-id="69608" fill="#ffffff"></path><path d="M209.69 207.3h-72v406.76h72V207.3zM173.69 749.77a36 36 0 0 0-36 36v4.49a36 36 0 0 0 72 0v-4.49a36 36 0 0 0-36-36zM448.69 140.92v752.94h-136V140.92h136m0-72h-136a72 72 0 0 0-72 72v753a72 72 0 0 0 72 72h136a72 72 0 0 0 72-72v-753a72 72 0 0 0-72-72z" p-id="69609" fill="#ffffff"></path><path d="M416.69 207.3h-72v406.76h72V207.3zM380.69 749.77a36 36 0 0 0-36 36v4.49a36 36 0 0 0 72 0v-4.49a36 36 0 0 0-36-36zM723.42 130.15l194.87 727.29-131.36 35.2-194.88-727.29 131.37-35.2m0-72a72.25 72.25 0 0 0-18.68 2.48L573.42 95.81A72 72 0 0 0 522.5 184l194.88 727.27a71.88 71.88 0 0 0 88.18 50.91L936.93 927a72 72 0 0 0 50.91-88.18L793 111.52a72 72 0 0 0-69.5-53.39z" p-id="69610" fill="#ffffff"></path><path d="M709.69 202.54l-69.55 18.64 105.28 392.9 69.54-18.63-105.27-392.91zM824.66 734.61a36 36 0 0 0-9.35 1.24 36 36 0 0 0-25.45 44.09l1.16 4.34a35.94 35.94 0 0 0 44.09 25.46 36 36 0 0 0 25.46-44.09l-1.16-4.34a36 36 0 0 0-34.75-26.7z" p-id="69611" fill="#ffffff"></path></svg>