<?xml version="1.0" standalone="no"?><!DOCTYPE svg PUBLIC "-//W3C//DTD SVG 1.1//EN" "http://www.w3.org/Graphics/SVG/1.1/DTD/svg11.dtd"><svg t="1583730794617" class="icon" viewBox="0 0 1143 1024" version="1.1" xmlns="http://www.w3.org/2000/svg" p-id="60150" xmlns:xlink="http://www.w3.org/1999/xlink" width="223.2421875" height="200"><defs><style type="text/css"></style></defs><path d="M71.44186 0h1000.186047a71.44186 71.44186 0 0 1 71.44186 71.44186v690.604652a71.44186 71.44186 0 0 1-71.44186 71.44186H71.44186a71.44186 71.44186 0 0 1-71.44186-71.44186V71.44186a71.44186 71.44186 0 0 1 71.44186-71.44186z m190.511628 583.44186a59.534884 59.534884 0 1 0 119.069768 0v-309.581395a59.534884 59.534884 0 1 0-119.069768 0v309.581395zM833.488372 309.581395a47.627907 47.627907 0 1 0 0-95.255814H500.093023a47.627907 47.627907 0 1 0 0 95.255814h333.395349z m0 333.395349a47.627907 47.627907 0 1 0 0-95.255814H500.093023a47.627907 47.627907 0 1 0 0 95.255814h333.395349z m0-166.697674a47.627907 47.627907 0 1 0 0-95.255814H500.093023a47.627907 47.627907 0 1 0 0 95.255814h333.395349z" p-id="60151" fill="#ffffff"></path><path d="M428.651163 928.744186m47.627907 0l190.511628 0q47.627907 0 47.627907 47.627907l0 0q0 47.627907-47.627907 47.627907l-190.511628 0q-47.627907 0-47.627907-47.627907l0 0q0-47.627907 47.627907-47.627907Z" p-id="60152" fill="#ffffff"></path><path d="M523.906977 976.372093m0-47.627907l0-95.255814q0-47.627907 47.627907-47.627907l0 0q47.627907 0 47.627907 47.627907l0 95.255814q0 47.627907-47.627907 47.627907l0 0q-47.627907 0-47.627907-47.627907Z" p-id="60153" fill="#ffffff"></path></svg>