<?xml version="1.0" standalone="no"?><!DOCTYPE svg PUBLIC "-//W3C//DTD SVG 1.1//EN" "http://www.w3.org/Graphics/SVG/1.1/DTD/svg11.dtd"><svg t="1583730884735" class="icon" viewBox="0 0 1024 1024" version="1.1" xmlns="http://www.w3.org/2000/svg" p-id="66501" xmlns:xlink="http://www.w3.org/1999/xlink" width="200" height="200"><defs><style type="text/css"></style></defs><path d="M754.4 264.1m-200 0a200 200 0 1 0 400 0 200 200 0 1 0-400 0Z" fill="#ffffff" p-id="66502"></path><path d="M754.4 759.6m-200 0a200 200 0 1 0 400 0 200 200 0 1 0-400 0Z" fill="#ffffff" p-id="66503"></path><path d="M265.4 759.6m-200 0a200 200 0 1 0 400 0 200 200 0 1 0-400 0Z" fill="#ffffff" p-id="66504"></path><path d="M265.4 128.1c36.3 0 70.5 14.1 96.2 39.8 25.7 25.7 39.8 59.8 39.8 96.2s-14.1 70.5-39.8 96.2c-25.7 25.7-59.8 39.8-96.2 39.8S195 386 169.3 360.3c-25.7-25.7-39.8-59.8-39.8-96.2s14.1-70.5 39.8-96.2 59.8-39.8 96.1-39.8m0-64c-110.5 0-200 89.5-200 200s89.5 200 200 200 200-89.5 200-200-89.5-200-200-200z" fill="#ffffff" p-id="66505"></path></svg>