<?xml version="1.0" standalone="no"?><!DOCTYPE svg PUBLIC "-//W3C//DTD SVG 1.1//EN" "http://www.w3.org/Graphics/SVG/1.1/DTD/svg11.dtd"><svg t="1583725660652" class="icon" viewBox="0 0 1152 1024" version="1.1" xmlns="http://www.w3.org/2000/svg" p-id="36976" xmlns:xlink="http://www.w3.org/1999/xlink" width="225" height="200"><defs><style type="text/css"></style></defs><path d="M671.488 856.619V671.275c-62.72-23.296-124.245-36.31-198.827-36.31C211.627 634.837 0 795.563 0 993.92c0 6.4 0.256 12.715 0.597 18.944h856.448l-149.29-111.787c-19.499-14.72-36.267-24.661-36.267-44.458zM467.968 495.7c-135.51 0-245.248-110.933-245.333-247.85C222.592 110.976 332.416 0 467.925 0 603.35 0 713.216 110.933 713.216 247.85c0 136.875-109.867 247.851-245.333 247.851z m623.53-60.373c23.04 0 41.729 18.773 41.558 42.155v360.96a42.07 42.07 0 0 1-22.741 37.546L948.18 996.907c-19.968 14.848-52.352 14.848-72.277 0L713.899 876.16a42.112 42.112 0 0 1-22.912-37.59V477.44c0-23.339 18.645-42.155 41.685-42.155h358.827z m-80.554 359.68L997.76 688l72.96-78.763-104.917-20.352-51.627-94.464-51.584 94.464-104.875 20.352L830.805 688l-13.312 107.008 96.726-45.824 96.725 45.824z" p-id="36977" fill="#ffffff"></path></svg>