<?xml version="1.0" standalone="no"?><!DOCTYPE svg PUBLIC "-//W3C//DTD SVG 1.1//EN" "http://www.w3.org/Graphics/SVG/1.1/DTD/svg11.dtd"><svg t="1583730945969" class="icon" viewBox="0 0 1024 1024" version="1.1" xmlns="http://www.w3.org/2000/svg" p-id="67483" xmlns:xlink="http://www.w3.org/1999/xlink" width="200" height="200"><defs><style type="text/css"></style></defs><path d="M511.7 0.643C229.108 0.643 0.02 229.728 0.02 512.32S229.108 1024 511.7 1024s511.678-229.087 511.678-511.679S794.293 0.643 511.7 0.643zM444.169 766.74c-51.517 51.515-135.338 51.515-186.889-0.037-51.516-51.515-51.516-135.337 0-186.852l132.38-132.379c51.515-51.515 135.336-51.515 186.888 0.037a131.911 131.911 0 0 1 4.052 4.26c0.771 0.637 1.52 1.313 2.243 2.035a31.647 31.647 0 0 1 5.184 6.827c0.167 0.218 0.344 0.43 0.509 0.649l-0.097 0.089c6.34 11.96 4.475 27.128-5.596 37.198-10.146 10.146-25.465 11.958-37.466 5.447-0.832 0.878-9.13-7.388-13.54-11.797l-0.037-0.035c-26.904-26.905-70.31-27.12-97.218-0.215l-132.59 132.595c-26.905 26.904-26.905 70.527 0 97.432l0.036 0.037c26.905 26.904 70.528 26.904 97.432 0l79.822-79.822c27.708 13.602 60.285 14.035 88.24 1.18L444.169 766.74z m321.95-321.95L633.742 577.168c-51.516 51.515-135.337 51.515-186.888-0.037a131.875 131.875 0 0 1-4.051-4.259 31.647 31.647 0 0 1-7.427-8.863c-0.167-0.217-0.344-0.43-0.51-0.65l0.096-0.088c-6.34-11.96-4.475-27.128 5.596-37.199 10.146-10.146 25.465-11.958 37.467-5.447 0.832-0.878 9.13 7.389 13.54 11.797l0.036 0.037c26.905 26.905 70.311 27.12 97.218 0.215L721.412 400.08c26.905-26.905 26.905-70.527 0-97.432l-0.037-0.037c-26.905-26.905-70.527-26.905-97.432 0l-79.822 79.822c-27.619-13.514-60.285-14.036-88.24-1.18l123.352-123.352c51.516-51.515 135.337-51.515 186.888 0.037 51.513 51.514 51.513 135.337-0.002 186.851z" p-id="67484" fill="#ffffff"></path></svg>