<?xml version="1.0" standalone="no"?><!DOCTYPE svg PUBLIC "-//W3C//DTD SVG 1.1//EN" "http://www.w3.org/Graphics/SVG/1.1/DTD/svg11.dtd"><svg t="1583731805221" class="icon" viewBox="0 0 1024 1024" version="1.1" xmlns="http://www.w3.org/2000/svg" p-id="105026" xmlns:xlink="http://www.w3.org/1999/xlink" width="200" height="200"><defs><style type="text/css"></style></defs><path d="M614.4 338.0992c-46.69952 0-84.59776 37.89824-84.59776 84.59776S567.70048 507.29984 614.4 507.29984c46.69952 0 84.59776-37.89824 84.59776-84.59776S661.20192 338.0992 614.4 338.0992z" p-id="105027" fill="#ffffff"></path><path d="M964.52608 332.8a133.16096 133.16096 0 0 0-66.62656-115.38432L583.18848 35.74272a133.2736 133.2736 0 0 0-133.1456 0L135.34208 217.41568A133.25312 133.25312 0 0 0 68.7104 332.8v363.35104a133.16096 133.16096 0 0 0 66.62656 115.38432L450.048 993.20832a133.2736 133.2736 0 0 0 133.1456 0l314.70592-181.67296a133.25824 133.25824 0 0 0 66.62656-115.38432V332.8z m-331.33568 270.81216a191.5904 191.5904 0 0 1-97.28512-26.4704l-135.18336 135.18336-68.77696 68.77696c-18.66752 18.66752-48.98304 18.66752-67.64544 0-18.66752-18.66752-18.66752-48.98304 0-67.64544l57.35424-57.35424-57.35424-57.35424c-18.66752-18.66752-18.66752-48.98304 0-67.64544 18.66752-18.66752 48.98304-18.66752 67.64544 0l57.35424 57.35424 78.96064-78.96064c-16.85504-28.50816-26.4704-61.76256-26.4704-97.28512 0-105.76896 85.74464-191.5136 191.5136-191.5136s191.5136 85.74464 191.5136 191.5136c-0.10752 105.65632-85.85728 191.40096-191.62624 191.40096z" p-id="105028" fill="#ffffff"></path></svg>