<?xml version="1.0" standalone="no"?><!DOCTYPE svg PUBLIC "-//W3C//DTD SVG 1.1//EN" "http://www.w3.org/Graphics/SVG/1.1/DTD/svg11.dtd"><svg t="1583730315321" class="icon" viewBox="0 0 1024 1024" version="1.1" xmlns="http://www.w3.org/2000/svg" p-id="38466" xmlns:xlink="http://www.w3.org/1999/xlink" width="200" height="200"><defs><style type="text/css"></style></defs><path d="M878.679 218.757H752.364v-98.594c0-28.014-20.619-51.298-47.479-55.479H319.117c-26.86 4.181-47.48 27.465-47.48 55.479v98.594H145.318c-44.839 0-81.318 36.479-81.318 81.318v139.966c0 15.589 11.814 31.071 32.888 46.013 60.106 42.625 191.344 71.919 351.055 78.36 21.197 0.855 42.443 1.271 63.538 1.271 134.245 0.005 263.326-16.948 347.617-46.487 34.409-12.059 60.663-25.741 78.042-40.665 14.86-12.767 22.855-25.358 22.855-38.493V300.075c0.001-44.839-36.477-81.318-81.316-81.318z m-515.27 0v-53.979c0-8.019 6.503-14.523 14.522-14.523h268.133c8.025 0 14.528 6.504 14.528 14.523v53.979H363.409z m0 0" p-id="38467" fill="#ffffff"></path><path d="M879.436 577.225c-76.858 26.934-183.329 43.897-299.291 48.63v103.909c0 5.657-4.587 10.248-10.243 10.248H454.1c-5.658 0-10.25-4.592-10.25-10.248V625.78C273.088 618.729 135.059 586.833 64 538.072v339.921c0 44.839 36.479 81.323 81.318 81.323h733.361c44.839 0 81.321-36.484 81.321-81.323V538.288c-21.324 14.571-48.3 27.627-80.564 38.937z m0 0" p-id="38468" fill="#ffffff"></path></svg>