<?xml version="1.0" standalone="no"?><!DOCTYPE svg PUBLIC "-//W3C//DTD SVG 1.1//EN" "http://www.w3.org/Graphics/SVG/1.1/DTD/svg11.dtd"><svg t="1583737067801" class="icon" viewBox="0 0 1024 1024" version="1.1" xmlns="http://www.w3.org/2000/svg" p-id="109644" xmlns:xlink="http://www.w3.org/1999/xlink" width="200" height="200"><defs><style type="text/css"></style></defs><path d="M674.712751 612.966606c17.356791-6.297597 30.207985-20.99199 33.894383-38.860781l32.153584-153.907123a17.510391 17.510391 0 0 0-9.164796-19.097591 17.919991 17.919991 0 0 0-21.043189 3.327999l-61.849569 63.385568-84.172758-136.857531a53.452773 53.452773 0 0 0-45.567977-25.343988c-18.585591 0-35.839982 9.625595-45.567978 25.343988L388.146494 469.709077 324.351326 404.48031a17.919991 17.919991 0 0 0-21.04319-3.327999 17.510391 17.510391 0 0 0-9.113595 19.097591l32.102384 153.907123c4.300798 20.47999 20.37759 36.505582 41.062379 40.857579 7.167996 3.430398 15.052792 5.171197 23.039989 5.222398h257.228671c9.523195 0.0512 18.892791-2.457599 27.135987-7.270396z m325.427037-89.855956a105.471947 105.471947 0 0 1-10.803195 14.591993l-397.567801 450.201375a107.519946 107.519946 0 0 1-160.61432 0L33.586671 537.702643a105.625547 105.625547 0 0 1-14.335993-20.735989 104.089548 104.089548 0 0 1-11.366394-100.04475l144.588728-351.231825A106.649547 106.649547 0 0 1 251.288962 0.000512h521.57414c43.366378 0 82.431959 25.958387 98.76475 65.689567l144.537528 351.231825c15.206392 36.863982 7.679996 77.311961-16.025592 106.188746zM511.948032 245.862789c14.131193 0 27.699186-5.529597 37.734381-15.411192a52.377574 52.377574 0 0 0-17.305591-85.913557 53.759973 53.759973 0 0 0-58.111971 11.417594 52.223974 52.223974 0 0 0-11.571194 57.395171c8.243196 19.71199 27.699186 32.511984 49.254375 32.511984z" p-id="109645" fill="#ffffff"></path></svg>