<?xml version="1.0" standalone="no"?><!DOCTYPE svg PUBLIC "-//W3C//DTD SVG 1.1//EN" "http://www.w3.org/Graphics/SVG/1.1/DTD/svg11.dtd"><svg t="1583737091041" class="icon" viewBox="0 0 1024 1024" version="1.1" xmlns="http://www.w3.org/2000/svg" p-id="111797" xmlns:xlink="http://www.w3.org/1999/xlink" width="200" height="200"><defs><style type="text/css"></style></defs><path d="M974.1824 758.6048c-33.1776 44.032-75.8784 73.1648-127.8464 87.3984l53.5552 177.8176h-136.5504l-66.0992-222.4896a430.08 430.08 0 0 0 77.5936-50.3552 436.1472 436.1472 0 0 0 86.1952-94.5152 448 448 0 0 0 76.2624-237.5424c4.5056 3.9424 8.7296 8.0384 12.8256 11.9808a252.5952 252.5952 0 0 1 39.5264 50.4832c10.9568 18.4576 19.4304 38.5024 25.3696 60.2624 5.9648 21.6064 8.8576 43.8784 8.9856 66.304v0.128c0 56.2944-16.64 106.496-49.8176 150.528z m-326.5792 20.5824l71.7824 244.7872H297.4464l72.576-244.4032c-144.2304-58.1376-246.6816-204.7232-246.6816-376.3456 0-4.352 0.128-8.704 0.256-12.928C130.0736 173.5936 299.8272 0 508.416 0s378.4704 173.5936 384.9472 390.2976c0.128 4.352 0.256 8.576 0.256 12.928 0 171.2384-101.9136 317.5424-246.016 375.9616z m-15.9744-320.5888c0 35.712-12.032 66.1504-36.224 91.4688-24.192 25.3184-53.2736 37.9648-87.3728 37.9648-11.1104 0-21.9648-1.5872-32.5376-4.864a130.6368 130.6368 0 0 1-29.2096-13.184 117.6064 117.6064 0 0 1-24.576-19.9168 129.9456 129.9456 0 0 1-31.616-56.9344 133.4528 133.4528 0 0 1-4.608-34.5344h-53.0176c0 51.2768 17.1776 94.8992 51.5584 130.8928 34.3808 35.9936 75.8784 54.0416 124.5184 54.0416s90.1632-17.92 124.5184-54.0416c34.3808-35.9936 51.5584-79.616 51.5584-130.8928h-52.992zM249.1648 751.488a419.3024 419.3024 0 0 0 77.7216 50.2272l-66.7392 222.2592H123.8528l53.4016-177.8432c-51.9424-14.2336-94.3872-43.3664-127.5648-87.3984-33.1776-44.032-49.7152-94.2336-49.7152-150.528v-0.128c0-22.6816 2.9184-44.8256 8.8576-66.5856a242.6368 242.6368 0 0 1 25.3952-60.2368c10.9568-18.4576 24.064-35.328 39.3984-50.4832 4.096-4.0704 8.32-8.0384 12.8-11.9808a448.7168 448.7168 0 0 0 76.416 238.0544 436.1984 436.1984 0 0 0 86.3232 94.6432z" p-id="111798" fill="#ffffff"></path></svg>